<svg width="59" height="26" viewBox="0 0 59 26" fill="none" xmlns="http://www.w3.org/2000/svg">
<path d="M0 26V0L58.5 2V20L4.5 21.5L0 26Z" fill="#F9AA26"/>
<path d="M14.47 14C14.84 12.61 15.46 10.29 15.71 9.06H15.72C15.96 10.24 16.57 12.47 16.93 14H18.48L20.34 7.11H18.9C18.65 8.18 17.98 10.85 17.75 12.37H17.74C17.51 11.1 16.82 8.43 16.46 7.11H15.12C14.72 8.77 14.05 11.17 13.79 12.44H13.78C13.7 11.68 13.41 10.27 12.76 7.11H11.17L12.93 14H14.47ZM21.0345 14H22.4745V8.82H21.0345V14ZM22.4745 7.98V6.7H21.0345V7.98H22.4745ZM23.7691 14H25.2091V11.12C25.2091 10.2 25.5491 9.86 26.1591 9.86C26.7991 9.86 26.9891 10.28 26.9891 10.87V14H28.4191V10.71C28.4191 9.41 27.7491 8.7 26.7091 8.7C25.7991 8.7 25.3791 9.16 25.2091 9.48C25.1991 9.32 25.1791 8.96 25.1491 8.82H23.7591C23.7691 9.21 23.7691 9.69 23.7691 10.13V14ZM29.6969 14H31.1369V11.12C31.1369 10.2 31.4769 9.86 32.0869 9.86C32.7269 9.86 32.9169 10.28 32.9169 10.87V14H34.3469V10.71C34.3469 9.41 33.6769 8.7 32.6369 8.7C31.7269 8.7 31.3069 9.16 31.1369 9.48C31.1269 9.32 31.1069 8.96 31.0769 8.82H29.6869C29.6969 9.21 29.6969 9.69 29.6969 10.13V14ZM40.1746 11.72C40.1946 11.57 40.1946 11.46 40.1946 11.28C40.1946 9.99 39.5846 8.7 37.8146 8.7C36.1446 8.7 35.3146 9.86 35.3146 11.49C35.3146 12.85 36.0546 14.12 37.7646 14.12C39.3846 14.12 39.9546 13.08 40.1346 12.45H38.7046C38.5646 12.76 38.3946 13 37.7946 13C37.0846 13 36.7546 12.37 36.7546 11.72H40.1746ZM36.7846 10.84C36.8446 10.2 37.1246 9.73 37.8046 9.73C38.5046 9.73 38.7446 10.24 38.7546 10.84H36.7846ZM41.1908 14H42.6308V11.74C42.6308 10.32 43.2508 10.04 44.2908 10.07V8.7C43.4108 8.71 42.8608 9.14 42.6308 9.73C42.6308 9.45 42.6108 8.94 42.5908 8.82H41.1808C41.1908 9.26 41.1908 9.71 41.1908 10.23V14Z" fill="black"/>
</svg>
